<?xml version="1.0" encoding="UTF-8" standalone="no"?>
<svg
   width="64pt"
   height="64pt"
   viewBox="0 0 22.577778 22.577778"
   version="1.1"
   id="svg831"
   inkscape:version="1.1.2 (1:1.1+202202050950+0a00cf5339)"
   sodipodi:docname="21 - Biceps.svg"
   inkscape:export-filename="/media/taufikramadhan/Data/Tr Design Studio/Project Design/TR Creative Design/Icon Design/Project Hiring/Icon Icons/018 - Gym And Fitness/5 - Send/4 - Filled Line/21 - Biceps.png"
   inkscape:export-xdpi="576"
   inkscape:export-ydpi="576"
   xmlns:inkscape="http://www.inkscape.org/namespaces/inkscape"
   xmlns:sodipodi="http://sodipodi.sourceforge.net/DTD/sodipodi-0.dtd"
   xmlns="http://www.w3.org/2000/svg"
   xmlns:svg="http://www.w3.org/2000/svg"
   xmlns:rdf="http://www.w3.org/1999/02/22-rdf-syntax-ns#"
   xmlns:cc="http://creativecommons.org/ns#"
   xmlns:dc="http://purl.org/dc/elements/1.1/">
  <defs
     id="defs825">
    <pattern
       id="EMFhbasepattern"
       patternUnits="userSpaceOnUse"
       width="6"
       height="6"
       x="0"
       y="0" />
    <pattern
       id="EMFhbasepattern-9"
       patternUnits="userSpaceOnUse"
       width="6"
       height="6"
       x="0"
       y="0" />
    <pattern
       id="EMFhbasepattern-0"
       patternUnits="userSpaceOnUse"
       width="6"
       height="6"
       x="0"
       y="0" />
    <pattern
       id="EMFhbasepattern-7"
       patternUnits="userSpaceOnUse"
       width="6"
       height="6"
       x="0"
       y="0" />
    <pattern
       id="EMFhbasepattern-2"
       patternUnits="userSpaceOnUse"
       width="6"
       height="6"
       x="0"
       y="0" />
    <pattern
       id="EMFhbasepattern-98"
       patternUnits="userSpaceOnUse"
       width="6"
       height="6"
       x="0"
       y="0" />
    <pattern
       id="EMFhbasepattern-6"
       patternUnits="userSpaceOnUse"
       width="6"
       height="6"
       x="0"
       y="0" />
    <pattern
       id="EMFhbasepattern-01"
       patternUnits="userSpaceOnUse"
       width="6"
       height="6"
       x="0"
       y="0" />
    <pattern
       id="EMFhbasepattern-07"
       patternUnits="userSpaceOnUse"
       width="6"
       height="6"
       x="0"
       y="0" />
    <pattern
       id="EMFhbasepattern-8"
       patternUnits="userSpaceOnUse"
       width="6"
       height="6"
       x="0"
       y="0" />
    <pattern
       id="EMFhbasepattern-4"
       patternUnits="userSpaceOnUse"
       width="6"
       height="6"
       x="0"
       y="0" />
    <pattern
       id="EMFhbasepattern-40"
       patternUnits="userSpaceOnUse"
       width="6"
       height="6"
       x="0"
       y="0" />
    <pattern
       id="EMFhbasepattern-08"
       patternUnits="userSpaceOnUse"
       width="6"
       height="6"
       x="0"
       y="0" />
    <pattern
       id="EMFhbasepattern-04"
       patternUnits="userSpaceOnUse"
       width="6"
       height="6"
       x="0"
       y="0" />
    <pattern
       id="EMFhbasepattern-014"
       patternUnits="userSpaceOnUse"
       width="6"
       height="6"
       x="0"
       y="0" />
    <pattern
       id="EMFhbasepattern-27"
       patternUnits="userSpaceOnUse"
       width="6"
       height="6"
       x="0"
       y="0" />
    <pattern
       id="EMFhbasepattern-09"
       patternUnits="userSpaceOnUse"
       width="6"
       height="6"
       x="0"
       y="0" />
    <pattern
       id="EMFhbasepattern-5"
       patternUnits="userSpaceOnUse"
       width="6"
       height="6"
       x="0"
       y="0" />
    <pattern
       id="EMFhbasepattern-018"
       patternUnits="userSpaceOnUse"
       width="6"
       height="6"
       x="0"
       y="0" />
  </defs>
  <sodipodi:namedview
     inkscape:lockguides="true"
     id="base"
     pagecolor="#ffffff"
     bordercolor="#666666"
     borderopacity="1.0"
     inkscape:pageopacity="0.0"
     inkscape:pageshadow="2"
     inkscape:zoom="2.7773438"
     inkscape:cx="27.544304"
     inkscape:cy="61.209564"
     inkscape:document-units="pt"
     inkscape:current-layer="layer1"
     showgrid="false"
     units="pt"
     inkscape:window-width="1366"
     inkscape:window-height="705"
     inkscape:window-x="0"
     inkscape:window-y="31"
     inkscape:window-maximized="1"
     inkscape:pagecheckerboard="true"
     inkscape:showpageshadow="false"
     inkscape:object-paths="true"
     inkscape:snap-intersection-paths="true"
     inkscape:snap-smooth-nodes="true"
     inkscape:snap-midpoints="true"
     showguides="false"
     inkscape:snap-bbox="true"
     inkscape:bbox-nodes="true"
     inkscape:snap-nodes="false"
     inkscape:snap-global="true"
     inkscape:document-rotation="0">
    <inkscape:grid
       type="xygrid"
       id="grid1378" />
    <sodipodi:guide
       position="0.97013831,21.607643"
       orientation="78.000048,0"
       id="guide1380"
       inkscape:locked="true" />
    <sodipodi:guide
       position="0.97013831,0.97013129"
       orientation="0,78.000005"
       id="guide1382"
       inkscape:locked="true" />
    <sodipodi:guide
       position="21.607639,0.97013129"
       orientation="-78.000048,0"
       id="guide1384"
       inkscape:locked="true" />
    <sodipodi:guide
       position="21.607639,21.607643"
       orientation="0,-78.000005"
       id="guide1386"
       inkscape:locked="true" />
  </sodipodi:namedview>
  <metadata
     id="metadata828">
    <rdf:RDF>
      <cc:Work
         rdf:about="">
        <dc:format>image/svg+xml</dc:format>
        <dc:type
           rdf:resource="http://purl.org/dc/dcmitype/StillImage" />
      </cc:Work>
    </rdf:RDF>
  </metadata>
  <g
     inkscape:label="Icon"
     inkscape:groupmode="layer"
     id="layer1"
     transform="translate(0,-274.42223)">
    <g
       id="g35860"
       style="display:inline;stroke-width:0.794873"
       transform="matrix(1.2580631,0,0,1.2580631,0.63859936,-154.03083)">
      <path
         style="color:#000000;fill:#ffa185;fill-opacity:1;stroke-width:0.794873;stroke-linecap:round;stroke-linejoin:round;stroke-miterlimit:10;-inkscape-stroke:none"
         d="m 9.9257813,345.02344 a 0.26460996,0.26460996 0 0 0 -0.2714844,0.0137 c -0.2229294,0.14859 -0.2791874,0.2495 -0.5195313,0.30078 a 0.26460996,0.26460996 0 0 0 -0.021484,0.004 c -0.3250379,0.0979 -0.6187302,0.0817 -0.9765625,0.0996 a 0.26460996,0.26460996 0 0 0 -0.2500001,0.26562 v 0.2793 c 0,0.44688 0.3675672,0.8164 0.8144532,0.8164 h 0.5507812 c 0.4468861,0 0.8144526,-0.36952 0.8144526,-0.8164 v -0.73047 a 0.26460996,0.26460996 0 0 0 -0.1406244,-0.23242 z"
         id="path32151" />
      <path
         style="color:#000000;fill:#ffccbc;stroke-width:0.794873;stroke-linecap:round;stroke-linejoin:round;stroke-miterlimit:10;-inkscape-stroke:none"
         d="m 6.7659955,341.57764 c -0.2874983,2.6e-4 -0.5281853,0.0172 -0.541569,0.0181 -1.2064354,0 -1.9732414,0.51149 -2.4101888,1.06454 -0.3780314,0.47847 -0.5219497,0.97513 -0.574642,1.21749 -0.3924853,0.19467 -1.4228233,0.84488 -1.5363404,2.34611 -0.2306477,0.32367 -1.38809678,2.06363 -1.43970549,4.49275 a 0.26460996,0.26460996 0 0 0 0,0.006 c 0,2.5816 0.86595889,4.00118 1.94923509,4.89427 1.5098191,1.27809 3.4768449,1.48514 4.9764405,1.49965 a 0.2645835,0.2645835 0 0 0 0.0062,0.003 c 0.377894,0.0874 0.7879839,0.13695 1.230416,0.13695 0,0 0.7198487,0.002 1.5802656,-0.10387 0.791769,-0.0968 1.66313,-0.31321 2.300634,-0.71107 0.735275,0.47082 1.783942,0.92654 3.249931,1.05471 0.609857,0.0532 1.111044,-0.45564 1.111044,-1.05471 v -6.60115 c 0,-0.59883 -0.490517,-1.08985 -1.08934,-1.08985 h -0.54932 a 0.26460996,0.26460996 0 0 0 -0.0016,0 v -5.3e-4 c -2.427706,0.004 -3.955972,1.2982 -4.539258,1.90479 -0.0399,-0.0653 -0.08228,-0.12923 -0.128674,-0.19172 a 0.26460996,0.26460996 0 0 0 -0.0041,-0.006 c -1.069403,-1.35892 -2.7446394,-1.15718 -2.771407,-1.15394 -0.8686306,0.004 -1.5387448,0.27121 -2.0143473,0.57775 -0.077412,-0.41704 -0.1808676,-1.13048 -0.1808673,-1.96629 0,-1.13205 0.5452583,-1.96083 0.6774778,-2.15232 0.2207257,0.10107 0.4409591,0.21445 0.7090008,0.21445 h 1.37511 c 0.5003599,0 0.9139356,-0.0515 1.2500528,-0.1695 0.3361171,-0.11807 0.6016732,-0.31305 0.7498252,-0.58807 0.148152,-0.27503 0.166845,-0.60479 0.09198,-0.95498 -0.07424,-0.34726 -0.239003,-0.72671 -0.482658,-1.15032 -0.2977401,-0.59285 -0.6904532,-0.9814 -1.1523845,-1.20716 -0.4634601,-0.22651 -0.9795497,-0.29614 -1.5446087,-0.32246 -0.099598,-0.005 -0.2007899,-0.006 -0.2966225,-0.006 z"
         id="path32157" />
      <path
         id="path318058"
         style="display:inline;fill:#ffa185;fill-opacity:1;stroke:none;stroke-width:2.31341;stroke-linecap:round;stroke-linejoin:round;stroke-miterlimit:10;stroke-opacity:1;stop-color:#000000"
         d="m 1.7482138,345.8859 c -0.019606,0.10804 -0.036003,0.21953 -0.044959,0.33796 -0.2306477,0.32367 -1.38809678,2.06363 -1.43970549,4.49275 -2.414e-5,0.002 -2.414e-5,0.004 0,0.006 0,2.58161 0.86595889,4.00119 1.94923509,4.89428 1.1814831,1.00014 2.6404234,1.34116 3.9387778,1.45056 l -0.8907693,-1.12633 c -3.0526943,-0.43943 -3.8453759,-2.55561 -3.8453759,-2.55561 -1.36539682,-3.56414 0.4015259,-6.68073 0.4015259,-6.68073 z"
         sodipodi:nodetypes="cccccccccc" />
      <path
         id="path8180"
         style="display:inline;fill:#ffa185;fill-opacity:1;stroke-width:2.31341;stroke-linecap:round;stroke-linejoin:round;stroke-miterlimit:10;stop-color:#000000"
         d="m 16.098707,354.5387 c -0.211646,1.50657 -1.200363,1.90264 -3.791964,1.90264 0.735275,0.47082 1.783941,0.92654 3.249931,1.05471 0.609856,0.0532 1.111043,-0.45564 1.111043,-1.05471 v -6.60115 z"
         sodipodi:nodetypes="cccscc" />
      <path
         id="path317210"
         style="display:inline;fill:#ffa185;fill-opacity:1;stroke:none;stroke-width:2.31341;stroke-linecap:round;stroke-linejoin:round;stroke-miterlimit:10;stroke-opacity:1;stop-color:#000000"
         d="m 6.2427496,355.938 c -0.8257688,-0.31831 -1.3933419,-0.69992 -1.3933419,-0.69992 l 1.1e-6,-4.7e-4 1.1192193,1.31585 0.8464598,0.55294 c 0.1259703,0.004 0.2537172,0.009 0.3741375,0.0104 0.00205,10e-4 0.00412,0.002 0.0062,0.003 0.3778943,0.0874 0.7879839,0.13694 1.230416,0.13694 0,0 0.7198487,0.002 1.5802656,-0.10387 0.653584,-0.0799 1.359357,-0.24269 1.945101,-0.52038 l 0.355533,-0.19093 -0.637356,-0.87109 c -1.612328,0.97959 -3.7798121,0.99175 -5.4266354,0.36753 z"
         sodipodi:nodetypes="ccccccccccccc" />
      <path
         id="path34770"
         style="fill:#ffa185;fill-opacity:1;stroke:none;stroke-width:8.7436;stroke-linecap:round;stroke-linejoin:round;stroke-miterlimit:10;stop-color:#000000"
         d="m 22.968033,247.23416 -3.77858,-2.52518 c 0,0 -5.319544,12.87836 -0.08024,21.9531 l 2.162726,-1.4315 -0.221151,-1.36535 c -0.292581,-1.57621 -0.683595,-4.27267 -0.683593,-7.43164 0,-4.27861 2.060819,-7.41102 2.560546,-8.13476 z"
         transform="matrix(0.26458334,0,0,0.26458334,0,280.06666)"
         sodipodi:nodetypes="cccccscc" />
      <path
         id="path81448"
         style="color:#000000;fill:#000000;stroke-width:3.00425;stroke-linecap:round;stroke-linejoin:round;stroke-miterlimit:10;-inkscape-stroke:none"
         d="m 23.525391,232.55082 c -4.975514,0 -7.955275,2.30231 -9.529297,4.5918 -1.092075,1.58847 -1.562803,3.18765 -1.75,4.01953 -0.692666,0.32715 -1.910423,1.01575 -3.0410159,2.23242 -1.3177471,1.41811 -2.5292915,3.59656 -2.7617187,6.66211 C 5.585327,251.24558 1,258.01235 1,267.03516 c -0.003691,9.7686 3.269009,15.1343 7.3632812,18.50976 5.7122118,4.83549 13.1562468,5.61455 18.8261718,5.66797 1.427083,0.3327 2.978616,0.52539 4.65625,0.52539 4.625165,0 10.679832,-0.30437 14.828125,-2.91992 2.765183,1.72358 6.730636,3.35669 12.123047,3.82812 2.304971,0.20108 4.199219,-1.72212 4.199219,-3.98632 v -24.95118 c -8e-6,-2.26325 -1.853912,-4.11914 -4.117188,-4.11914 h -2.082072 c -9.11665,0.0145 -14.92697,4.91305 -17.148437,7.20508 l -0.509771,-0.75387 c -4.029811,-5.12081 -10.31502,-4.37789 -10.453125,-4.36133 -3.28895,0.0113 -5.809679,1.04308 -7.621094,2.22265 -0.295247,-1.55829 -0.697265,-4.26468 -0.697265,-7.4707 0,-3.58035 1.621029,-6.63694 2.445312,-7.95898 0.845921,0.38737 1.780803,0.63028 2.794922,0.63476 l 4.201172,0.0186 c 0,1.70755 1.389107,3.10449 3.078125,3.10449 h 2.082031 c 1.689018,0 3.078125,-1.39694 3.078125,-3.08594 v -2.40625 c 0.117313,-0.15659 0.222998,-0.32074 0.316406,-0.49414 0.559945,-1.03948 0.630596,-2.28582 0.347657,-3.60937 -0.280593,-1.31248 -0.903315,-2.74661 -1.824219,-4.34766 -1.125317,-2.24069 -2.601783,-3.70923 -4.347657,-4.5625 -1.751656,-0.85606 -3.710069,-1.1192 -5.845703,-1.21875 m -0.09566,2.00195 c 2.02367,0.0945 3.700159,0.35189 5.0625,1.01758 1.362341,0.6658 2.472373,1.7201 3.447266,3.66992 0.645844,1.18852 1.193704,2.47595 1.646484,3.85938 0.217217,1.01609 0.133768,1.71604 -0.146484,2.23633 -0.280252,0.52025 -0.792502,0.95938 -1.742188,1.29296 -0.336053,0.1181 -0.725893,0.21872 -1.164062,0.29883 -0.314131,-3.72148 -2.046875,-6.44922 -2.046875,-6.44922 -0.141857,-0.22526 -0.369133,-0.38316 -0.628906,-0.4414 -0.257704,-0.0593 -0.527435,-0.0156 -0.751953,0.125 -0.469602,0.29291 -0.612816,0.91216 -0.31836,1.38086 0,0 1.495109,2.40641 1.75586,5.59179 -0.289412,0.0121 -0.591681,0.0176 -0.90625,0.0176 h -3.402344 c -0.272527,-3.7785 -1.978516,-6.57031 -1.978516,-6.57031 -0.285392,-0.47293 -0.900181,-0.6234 -1.373047,-0.33789 -0.472981,0.28535 -0.6253,0.90015 -0.339843,1.37305 0,0 1.416349,2.37072 1.683593,5.52929 -1.588323,-0.0881 -3.129207,-1.14286 -4.283203,-2.29687 -1.205501,-1.20548 -1.925781,-2.40625 -1.925781,-2.40625 -0.282841,-0.47564 -0.898206,-0.63183 -1.373047,-0.34766 -0.473004,0.28534 -0.625326,0.90013 -0.339844,1.37305 0,0 0.836406,1.39694 2.230469,2.79101 0.411458,0.41146 0.878463,0.83018 1.394531,1.21875 -0.957923,1.52862 -2.732422,4.91002 -2.732422,8.99805 0,4.16177 0.651224,7.5443 0.9375,8.83398 -1.235464,1.12721 -1.830078,2.08399 -1.830078,2.08399 -0.285424,0.47299 -0.13325,1.08781 0.339844,1.37305 0.472987,0.28542 1.087804,0.13324 1.373047,-0.33985 0,0 2.734519,-4.71679 9.599609,-4.72079 0,0 5.381399,-0.65763 8.759766,3.60538 2.347245,3.16819 1.946798,7.88877 0.677734,10.57031 -0.234349,0.49737 -0.02322,1.09063 0.472656,1.32813 0.497346,0.23592 1.091842,0.0255 1.330079,-0.47071 1.238702,-2.61743 1.818728,-6.49881 0.552734,-9.97461 1.366614,-1.58316 6.81456,-7.12116 16.224609,-7.13672 h 2.076172 c 1.182399,0 2.117184,0.94262 2.117188,2.125 v 24.95118 c 0,1.18148 -0.897003,2.09229 -2.021485,1.99414 -5.914616,-0.51712 -9.888341,-2.48613 -12.394531,-4.30469 -2.506189,-1.81856 -3.492187,-3.41797 -3.492187,-3.41797 -0.292687,-0.46515 -0.905883,-0.60584 -1.373047,-0.31641 -0.469595,0.29292 -0.610866,0.9122 -0.316406,1.38086 0,0 1.045254,1.64954 3.349609,3.47071 -4.135692,1.85437 -8.297859,2.17861 -12.902344,2.27148 -1.554287,0 -2.986525,-0.17954 -4.332033,-0.49708 -7.87088,-1.88468 -11.427737,-8.34669 -11.427736,-8.34669 -0.269972,-0.48457 -0.884298,-0.65577 -1.367188,-0.38281 -0.480155,0.26986 -0.650726,0.87621 -0.382812,1.35742 0,0 2.258082,4.02971 7.015624,6.93945 -4.059071,-0.57204 -8.274252,-1.88722 -11.695312,-4.7832 -0.00488,-0.004 -0.010636,-0.0118 -0.015625,-0.0156 -3.7165334,-3.05946 -6.6445312,-7.62606 -6.6445312,-16.94532 0.1273553,-5.9106 2.1112577,-10.67013 3.59375,-13.42578 0.170631,1.38759 0.3417968,2.67062 0.3417968,4.86719 -0.00216,0.55229 0.4438059,1.00176 0.9960938,1.00391 0.5553413,0.002 1.0060815,-0.44857 1.0039062,-1.00391 0,-2.66551 -0.2496379,-4.15237 -0.4355468,-5.76563 -0.4759491,-4.13007 0.8058594,-6.51839 2.1699222,-7.98632 1.364062,-1.46793 2.777343,-1.93555 2.777343,-1.93555 0.365684,-0.1221 0.628611,-0.44354 0.675782,-0.82617 0,0 0.235984,-1.84309 1.521484,-3.71289 1.285499,-1.86981 3.501845,-3.72852 7.884766,-3.72852 z m 9.447266,14.6367 c 0,0.60813 -0.46807,1.08594 -1.076172,1.08594 h -2.082031 c -0.608101,0 -1.078125,-0.47781 -1.078125,-1.11424 1.448385,-0.0884 2.682539,-0.28486 3.720703,-0.64939 0.177517,-0.0624 0.336654,-0.10177 0.515625,-0.2051 z m 14.513672,15.64258 c -0.262613,5.5e-4 -0.51447,0.10438 -0.701172,0.28906 -0.39173,0.39073 -0.39173,1.02529 0,1.41602 0,0 5.857982,5.82269 3.890625,14.67578 -0.116269,0.53739 0.223117,1.06785 0.759765,1.1875 0.535601,0.11792 1.066244,-0.21754 1.189454,-0.75195 2.19194,-9.86378 -4.429688,-16.52735 -4.429688,-16.52735 -0.188623,-0.18659 -0.443667,-0.29058 -0.708984,-0.28906 z m -43.6718752,4.15625 c -0.5522879,0.002 -0.9982571,0.45162 -0.9960938,1.00391 0,0 0.00118,1.13089 0.28125,2.53125 0.2800705,1.40035 0.8123685,3.1405 2.0878906,4.41601 0.3909501,0.39303 1.0270187,0.39303 1.4179688,0 0.3930346,-0.39095 0.3930346,-1.02702 0,-1.41797 C 8.8735997,274.67248 8.3667901,273.28715 8.1269481,272.08794 7.8871069,270.88873 7.89062,269.94732 7.89062,269.94732 7.8928,269.39198 7.4420551,268.94124 6.8867138,268.94341 Z m 39.5156252,0 c -0.552288,0.002 -0.998257,0.45162 -0.996094,1.00391 0,0 -0.06885,2.76224 -1.794922,4.48828 -0.393035,0.39095 -0.393035,1.02702 0,1.41797 0.39095,0.39303 1.027019,0.39303 1.417969,0 2.433218,-2.43315 2.36914,-5.90625 2.369141,-5.90625 0.0022,-0.55229 -0.443806,-1.00176 -0.996094,-1.00391 z m -26.214852,6.67389 c -0.199688,-0.28766 -0.535295,-0.44991 -0.884766,-0.42774 l 8e-6,-6e-5 c -0.54956,0.0335 -0.968633,0.50499 -0.9375,1.05469 1.5e-5,2.7e-4 0.04481,0.24376 0.04492,0.24414 0.09846,0.25123 0.238573,0.43072 0.39843,0.57622 0.132578,0.13304 0.317963,0.30229 0.560547,0.49414 0.485169,0.38397 1.206399,0.85907 2.193359,1.3125 1.97392,0.9069 5.01416,1.70595 9.308594,1.4336 0.550495,-0.0376 0.966534,-0.51392 0.929687,-1.06446 -0.03347,-0.5528 -0.509836,-0.97312 -1.0625,-0.9375 -3.992027,0.25323 -6.669252,-0.47764 -8.341797,-1.24609 -0.836271,-0.38419 -1.422035,-0.78137 -1.787109,-1.07031 z"
         transform="matrix(0.26458334,0,0,0.26458334,0,280.06666)"
         sodipodi:nodetypes="cscsccccsccscccccccscscssscsscscccccscccccccscccccscccscscccccccccccscscscccccccccccccccscssccsccssscccsccccccccscscccscssccccccccccscccscccscc" />
    </g>
  </g>
</svg>
