<?xml version="1.0" encoding="UTF-8" standalone="no"?>
<svg
   width="64pt"
   height="64pt"
   viewBox="0 0 22.577778 22.577778"
   version="1.1"
   id="svg831"
   inkscape:version="1.1.2 (1:1.1+202202050950+0a00cf5339)"
   sodipodi:docname="24 - Waist.svg"
   inkscape:export-filename="/media/taufikramadhan/Data/Tr Design Studio/Project Design/TR Creative Design/Icon Design/Project Hiring/Icon Icons/018 - Gym And Fitness/5 - Send/4 - Filled Line/24 - Waist.png"
   inkscape:export-xdpi="576"
   inkscape:export-ydpi="576"
   xmlns:inkscape="http://www.inkscape.org/namespaces/inkscape"
   xmlns:sodipodi="http://sodipodi.sourceforge.net/DTD/sodipodi-0.dtd"
   xmlns="http://www.w3.org/2000/svg"
   xmlns:svg="http://www.w3.org/2000/svg"
   xmlns:rdf="http://www.w3.org/1999/02/22-rdf-syntax-ns#"
   xmlns:cc="http://creativecommons.org/ns#"
   xmlns:dc="http://purl.org/dc/elements/1.1/">
  <defs
     id="defs825">
    <pattern
       id="EMFhbasepattern"
       patternUnits="userSpaceOnUse"
       width="6"
       height="6"
       x="0"
       y="0" />
    <pattern
       id="EMFhbasepattern-9"
       patternUnits="userSpaceOnUse"
       width="6"
       height="6"
       x="0"
       y="0" />
    <pattern
       id="EMFhbasepattern-0"
       patternUnits="userSpaceOnUse"
       width="6"
       height="6"
       x="0"
       y="0" />
    <pattern
       id="EMFhbasepattern-7"
       patternUnits="userSpaceOnUse"
       width="6"
       height="6"
       x="0"
       y="0" />
    <pattern
       id="EMFhbasepattern-2"
       patternUnits="userSpaceOnUse"
       width="6"
       height="6"
       x="0"
       y="0" />
    <pattern
       id="EMFhbasepattern-98"
       patternUnits="userSpaceOnUse"
       width="6"
       height="6"
       x="0"
       y="0" />
    <pattern
       id="EMFhbasepattern-6"
       patternUnits="userSpaceOnUse"
       width="6"
       height="6"
       x="0"
       y="0" />
    <pattern
       id="EMFhbasepattern-01"
       patternUnits="userSpaceOnUse"
       width="6"
       height="6"
       x="0"
       y="0" />
    <pattern
       id="EMFhbasepattern-07"
       patternUnits="userSpaceOnUse"
       width="6"
       height="6"
       x="0"
       y="0" />
    <pattern
       id="EMFhbasepattern-8"
       patternUnits="userSpaceOnUse"
       width="6"
       height="6"
       x="0"
       y="0" />
    <pattern
       id="EMFhbasepattern-4"
       patternUnits="userSpaceOnUse"
       width="6"
       height="6"
       x="0"
       y="0" />
    <pattern
       id="EMFhbasepattern-40"
       patternUnits="userSpaceOnUse"
       width="6"
       height="6"
       x="0"
       y="0" />
    <pattern
       id="EMFhbasepattern-08"
       patternUnits="userSpaceOnUse"
       width="6"
       height="6"
       x="0"
       y="0" />
    <pattern
       id="EMFhbasepattern-04"
       patternUnits="userSpaceOnUse"
       width="6"
       height="6"
       x="0"
       y="0" />
    <pattern
       id="EMFhbasepattern-014"
       patternUnits="userSpaceOnUse"
       width="6"
       height="6"
       x="0"
       y="0" />
    <pattern
       id="EMFhbasepattern-27"
       patternUnits="userSpaceOnUse"
       width="6"
       height="6"
       x="0"
       y="0" />
    <pattern
       id="EMFhbasepattern-09"
       patternUnits="userSpaceOnUse"
       width="6"
       height="6"
       x="0"
       y="0" />
    <pattern
       id="EMFhbasepattern-5"
       patternUnits="userSpaceOnUse"
       width="6"
       height="6"
       x="0"
       y="0" />
    <pattern
       id="EMFhbasepattern-018"
       patternUnits="userSpaceOnUse"
       width="6"
       height="6"
       x="0"
       y="0" />
  </defs>
  <sodipodi:namedview
     inkscape:lockguides="true"
     id="base"
     pagecolor="#ffffff"
     bordercolor="#666666"
     borderopacity="1.0"
     inkscape:pageopacity="0.0"
     inkscape:pageshadow="2"
     inkscape:zoom="5.5546875"
     inkscape:cx="47.797468"
     inkscape:cy="57.78903"
     inkscape:document-units="pt"
     inkscape:current-layer="layer1"
     showgrid="false"
     units="pt"
     inkscape:window-width="1366"
     inkscape:window-height="705"
     inkscape:window-x="0"
     inkscape:window-y="31"
     inkscape:window-maximized="1"
     inkscape:pagecheckerboard="true"
     inkscape:showpageshadow="false"
     inkscape:object-paths="true"
     inkscape:snap-intersection-paths="true"
     inkscape:snap-smooth-nodes="true"
     inkscape:snap-midpoints="true"
     showguides="true"
     inkscape:snap-bbox="true"
     inkscape:bbox-nodes="true"
     inkscape:snap-nodes="false"
     inkscape:snap-global="true"
     inkscape:document-rotation="0">
    <inkscape:grid
       type="xygrid"
       id="grid1378" />
    <sodipodi:guide
       position="0.97013831,21.607643"
       orientation="78.000048,0"
       id="guide1380"
       inkscape:locked="true" />
    <sodipodi:guide
       position="0.97013831,0.97013129"
       orientation="0,78.000005"
       id="guide1382"
       inkscape:locked="true" />
    <sodipodi:guide
       position="21.607639,0.97013129"
       orientation="-78.000048,0"
       id="guide1384"
       inkscape:locked="true" />
    <sodipodi:guide
       position="21.607639,21.607643"
       orientation="0,-78.000005"
       id="guide1386"
       inkscape:locked="true" />
  </sodipodi:namedview>
  <metadata
     id="metadata828">
    <rdf:RDF>
      <cc:Work
         rdf:about="">
        <dc:format>image/svg+xml</dc:format>
        <dc:type
           rdf:resource="http://purl.org/dc/dcmitype/StillImage" />
      </cc:Work>
    </rdf:RDF>
  </metadata>
  <g
     inkscape:label="Icon"
     inkscape:groupmode="layer"
     id="layer1"
     transform="translate(0,-274.42223)">
    <g
       id="g1708"
       transform="matrix(1.2582029,0,0,1.2582029,-0.63743589,-70.055699)"
       style="stroke-width:0.794784">
      <g
         id="g577383"
         style="display:inline;stroke-width:0.794784"
         transform="translate(-90.495663,-66.781138)">
        <path
           style="color:#000000;fill:#66342d;fill-opacity:1;stroke-width:0.794784;stroke-linecap:round;stroke-linejoin:round;stroke-miterlimit:10;-inkscape-stroke:none"
           d="m 103.87557,347.60773 h 1.17945 c 0.22445,0 0.38514,0.25182 0.38514,0.47625 0,0.22445 -0.17399,0.43125 -0.39844,0.43125 h -1.19112 z"
           id="path218929-3"
           sodipodi:nodetypes="cssscc" />
        <path
           style="color:#000000;fill:#ffccbc;stroke-width:0.794784;stroke-linecap:round;stroke-linejoin:round;stroke-miterlimit:10;-inkscape-stroke:none"
           d="m 99.974609,343.18945 c -0.830723,0 -1.95728,0.27187 -2.898437,0.53907 -0.941157,0.26719 -1.6875,0.53515 -1.6875,0.53515 a 0.26460996,0.26460996 0 0 0 -0.148438,0.36719 c 0,0 0.765625,1.53541 0.765625,3.58594 0,0.1631 -0.0048,0.31886 -0.01367,0.46875 -1.48e-4,0.002 1.51e-4,0.005 0,0.008 l -0.226562,1.31641 c -0.230902,0.82768 -0.541016,1.83203 -0.541016,1.83203 a 0.26460996,0.26460996 0 0 0 0.164063,0.32812 c 0,0 0.746345,0.26601 1.6875,0.5332 0.941155,0.2672 2.067715,0.54102 2.898437,0.54102 0.830719,0 1.957279,-0.27382 2.898439,-0.54102 0.94115,-0.26719 1.68945,-0.5332 1.68945,-0.5332 a 0.26460996,0.26460996 0 0 0 0.16016,-0.33398 c 0,0 -0.32205,-0.95625 -0.55274,-1.81641 l -0.20898,-1.29492 v -0.002 c -0.0103,-0.16093 -0.0176,-0.32962 -0.0176,-0.50586 0,-2.05053 0.76562,-3.58594 0.76562,-3.58594 a 0.26460996,0.26460996 0 0 0 -0.14648,-0.36719 c 0,0 -0.74634,-0.26796 -1.6875,-0.53515 -0.94116,-0.2672 -2.06967,-0.53907 -2.900389,-0.53907 z"
           id="path217957-6" />
        <path
           style="color:#000000;fill:#ee8eb4;stroke-width:0.794784;stroke-linecap:round;stroke-linejoin:round;stroke-miterlimit:10;-inkscape-stroke:none"
           d="m 95.146113,351.44211 c 0,0 -1.06245,1.89385 -1.235957,4.16531 -0.01615,0.21148 0.04206,0.41802 0.138672,0.60352 0.09661,0.1855 0.233835,0.35362 0.427734,0.45703 0.767244,0.40919 2.481958,1.07226 5.498047,1.07226 3.016641,0 4.732961,-0.66308 5.500001,-1.07226 0.19395,-0.10346 0.33124,-0.27329 0.42773,-0.45899 0.0965,-0.18569 0.15292,-0.39188 0.13672,-0.60351 -0.17383,-2.27097 -1.30236,-4.26218 -1.30236,-4.26218 0,0 -1.54083,0.84253 -4.761113,0.84253 -3.220283,0 -4.829474,-0.74371 -4.829474,-0.74371 z"
           id="path217963-7"
           sodipodi:nodetypes="csssssssczc" />
        <path
           id="path596196-5"
           style="color:#000000;display:inline;fill:#e75f96;fill-opacity:1;stroke-width:0.794784;stroke-linecap:round;stroke-linejoin:round;stroke-miterlimit:10;-inkscape-stroke:none"
           d="m 95.300711,351.44218 c 0,0 -0.196557,0.23333 -0.468276,0.89242 0.131016,0.0764 1.539904,0.9095 4.614211,0.9095 1.058624,0 1.932324,-0.0999 2.628284,-0.2339 1.19936,-0.23102 2.58488,0.18953 2.96063,1.35638 0.2179,0.67666 0.40869,1.46652 0.47273,2.28248 0.17628,-0.10455 0.30349,-0.26553 0.39429,-0.44028 0.0965,-0.18569 0.15263,-0.39143 0.13643,-0.60306 -0.17383,-2.27097 -1.50264,-4.08937 -1.50264,-4.08937 0,0 -1.34027,0.66942 -4.560557,0.66942 -3.220281,0 -4.675102,-0.74359 -4.675102,-0.74359 z"
           sodipodi:nodetypes="ccssscsscsc" />
        <path
           id="path478059-3"
           style="fill:#ffa286;fill-opacity:1;stroke-width:3.00391;stroke-linecap:round;stroke-linejoin:round;stroke-miterlimit:10"
           d="m 377.85742,238.57422 c -3.13974,0 -7.39795,1.02722 -10.95508,2.03711 -3.55713,1.00985 -6.3789,2.02344 -6.3789,2.02344 a 1.0001006,1.0001006 0 0 0 -0.56055,1.38671 c 0,0 0.96087,1.93097 1.77539,5.04883 0.0111,2e-4 0.0222,0.002 0.0332,0.002 0.98076,0.13984 8.3059,1.03712 16.0918,-1.89844 3.83769,1.43652 7.67872,1.99686 10.66016,2.10351 3.07234,0.10999 4.77059,-0.10983 5.43359,-0.20507 0.006,-8e-5 0.0117,9e-5 0.0176,0 0.81453,-3.11799 1.77539,-5.04883 1.77539,-5.04883 a 1.0001006,1.0001006 0 0 0 -0.55273,-1.38867 c 0,0 -2.82177,-1.01359 -6.37891,-2.02344 -3.55714,-1.00989 -7.82121,-2.03711 -10.96094,-2.03711 z"
           transform="matrix(0.26458334,0,0,0.26458334,0,280.06666)" />
        <path
           style="color:#000000;fill:#ee8eb4;stroke-width:0.794784;stroke-linecap:round;stroke-linejoin:round;stroke-miterlimit:10;-inkscape-stroke:none"
           d="m 95.742187,341.33789 c -0.350752,0 -0.748789,0.0752 -1.058593,0.36719 -0.309804,0.29196 -0.499251,0.7676 -0.529297,1.47265 -0.06137,1.44007 0.880207,2.12447 1.583984,2.12696 0.05553,0.008 2.24472,0.30759 4.236328,-0.5293 1.991631,0.83693 4.182751,0.53767 4.238281,0.5293 0.70377,-0.002 1.6434,-0.68689 1.58203,-2.12696 -0.0301,-0.70505 -0.2195,-1.18069 -0.52929,-1.47265 -0.3098,-0.29197 -0.7059,-0.36719 -1.05665,-0.36719 h -4.234371 z"
           id="path217973-5" />
        <path
           style="color:#000000;fill:#fca311;stroke-width:0.794784;stroke-linecap:round;stroke-linejoin:round;stroke-miterlimit:10;-inkscape-stroke:none"
           d="m 105.53125,347.82227 a 0.26460945,0.26460945 0 0 0 -0.26367,0.26171 c 0,0.22445 -0.17399,0.39649 -0.39844,0.39649 -3.48368,-1e-5 -6.965545,0 -10.449218,0 a 0.26460945,0.26460945 0 0 0 -0.265625,0.26562 v 1.32227 a 0.26460945,0.26460945 0 0 0 0.265625,0.26367 c 3.483673,0 6.965538,1e-5 10.449218,0 0.50845,0 0.92774,-0.41733 0.92774,-0.92578 v -1.32227 a 0.26460945,0.26460945 0 0 0 -0.26563,-0.26171 z"
           id="path218007-6" />
        <path
           style="color:#000000;fill:#4895ef;stroke-width:0.794784;stroke-linecap:round;stroke-linejoin:round;stroke-miterlimit:10;-inkscape-stroke:none"
           d="m 93.625,348.2168 c -0.288567,0 -0.529297,0.24073 -0.529297,0.52929 v 1.32227 c 0,0.28857 0.24073,0.5293 0.529297,0.5293 h 0.529297 c 0.288567,0 0.529297,-0.24073 0.529297,-0.5293 v -1.32227 c 0,-0.28856 -0.24073,-0.52929 -0.529297,-0.52929 z"
           id="path218041-2" />
        <path
           id="path492453-9"
           style="color:#000000;fill:#4377d1;fill-opacity:1;stroke-width:0.794784;stroke-linecap:round;stroke-linejoin:round;stroke-miterlimit:10;-inkscape-stroke:none"
           d="m 93.624778,348.21702 c -0.288568,0 -0.529167,0.24061 -0.529167,0.52917 h 0.529686 c 0.288565,0 0.529166,0.24061 0.529166,0.52917 v 1.3224 c 0.288565,0 0.529164,-0.2406 0.529167,-0.52917 v -1.3224 c 0,-0.28856 -0.240602,-0.52917 -0.529167,-0.52917 z" />
        <path
           id="path498873-1"
           style="color:#000000;fill:#e75f96;fill-opacity:1;stroke-width:0.794784;stroke-linecap:round;stroke-linejoin:round;stroke-miterlimit:10;-inkscape-stroke:none"
           d="m 95.741963,341.33786 c -0.350753,0 -0.74853,0.0754 -1.058333,0.36742 -0.05172,0.0487 -0.09987,0.10256 -0.144695,0.16174 h 4.906676 4.234369 c 0.35075,0 0.74647,0.0754 1.05627,0.36742 0.30978,0.29196 0.49958,0.76721 0.52968,1.47227 0.0246,0.57789 -0.11237,1.03421 -0.33021,1.37355 0.48835,-0.30716 0.90067,-0.93368 0.85938,-1.90272 -0.0301,-0.70505 -0.2199,-1.1803 -0.52969,-1.47226 -0.3098,-0.29197 -0.70551,-0.36742 -1.05626,-0.36742 h -4.234372 z" />
      </g>
      <path
         id="rect159328"
         style="color:#000000;display:inline;fill:#000000;stroke-width:0.794784;stroke-linecap:round;stroke-linejoin:round;stroke-miterlimit:10;-inkscape-stroke:none"
         d="m 15.300927,281.3031 c 0,-0.50844 -0.41914,-0.92604 -0.92759,-0.92604 h -0.85214 c 0.0732,-0.51001 0.19105,-0.91997 0.30747,-1.23042 0.16319,-0.43515 0.31438,-0.66267 0.35192,-0.71572 0.59104,-0.2308 1.1673,-0.89705 1.11777,-2.05284 -0.0363,-0.70834 -0.22756,-1.17588 -0.53638,-1.46167 -0.30882,-0.2858 -0.70092,-0.35967 -1.04852,-0.35967 -2.82239,1e-5 -5.64477,-10e-6 -8.467157,-2e-5 -0.346961,0 -0.737828,0.0731 -1.046448,0.3576 -0.308621,0.28457 -0.503124,0.75011 -0.540258,1.4596 -0.04924,1.16009 0.527949,1.82616 1.119589,2.05697 0.03753,0.0531 0.188733,0.28057 0.351917,0.71572 0.188257,0.50202 0.379304,1.26401 0.379304,2.28927 0,0.09 -0.0013,0.17768 -0.0041,0.26355 H 4.114656 c -0.09273,-0.15672 -0.26349,-0.26355 -0.455784,-0.26355 H 3.12916 c -0.288568,0 -0.529167,0.2406 -0.529167,0.52916 v 1.32241 c 0,0.28857 0.240599,0.52916 0.529167,0.52916 h 0.529685 c 0.193008,0 0.364329,-0.10794 0.456819,-0.26562 H 5.17038 c -0.200408,0.5913 -0.415221,0.9227 -0.415221,0.9227 0,0 -1.159975,2.0692 -1.339736,4.34263 -0.0172,0.2213 0.04134,0.4279 0.137951,0.6134 0.09661,0.1855 0.233466,0.35393 0.427363,0.45734 0.767244,0.40918 2.482284,1.07177 5.498373,1.07177 3.016637,0 4.732877,-0.66259 5.499917,-1.07177 0.19395,-0.10346 0.33088,-0.27371 0.42737,-0.45941 0.0965,-0.18569 0.15314,-0.39195 0.13588,-0.61908 -0.18329,-2.27371 -1.34257,-4.34263 -1.34257,-4.34263 0,0 -0.22869,-0.30063 -0.43254,-0.91493 h 0.60617 c 0.50845,0 0.92759,-0.41759 0.92759,-0.92604 z m -1.58745,-6.21877 c 0.27513,0 0.50985,0.0546 0.68937,0.22066 0.17952,0.16613 0.33584,0.47395 0.36793,1.09761 0.0527,1.22889 -0.70325,1.59373 -1.07694,1.59473 0,0 -1.84625,0.26006 -3.57497,-0.30489 0.29159,-0.18656 0.64047,-0.34427 0.86971,-0.56741 0.10399,-0.10343 0.10399,-0.27173 0,-0.37517 -0.0491,-0.0494 -0.11581,-0.0775 -0.18552,-0.078 -0.0704,1e-5 -0.13793,0.0281 -0.18758,0.078 -0.0699,0.0699 -0.41096,0.28901 -0.7028,0.45114 -1.372804,0.82253 -3.061044,0.96465 -4.646734,0.79629 -0.37378,-0.001 -1.129591,-0.36585 -1.076913,-1.59785 0.03299,-0.62361 0.188616,-0.9312 0.367962,-1.09657 0.179342,-0.16536 0.414731,-0.21859 0.689364,-0.21859 z m -0.20412,3.46439 c -0.0566,0.11634 -0.11722,0.25366 -0.17673,0.41238 -0.20862,0.55631 -0.41445,1.38337 -0.41445,2.47478 0,0.0898 0.002,0.17749 0.005,0.26355 h -0.52969 c 0.0312,-1.16082 0.25374,-2.05259 0.25374,-2.05259 0.035,-0.14184 -0.0514,-0.28532 -0.19327,-0.32039 -0.14184,-0.035 -0.28533,0.0514 -0.3204,0.19327 0,0 -0.23635,0.94826 -0.26768,2.17971 H 6.035739 c 0.0028,-0.086 0.0041,-0.17363 0.0041,-0.26355 0,-1.09141 -0.205309,-1.91847 -0.413927,-2.47478 -0.05952,-0.15872 -0.120383,-0.29604 -0.176734,-0.41238 0.592286,0.0614 2.440937,0.22728 4.031272,-0.52917 1.274547,0.46213 2.676497,0.66021 4.029217,0.52917 z m -9.32139,0.37311 c -0.0702,-5.3e-4 -0.137682,0.0271 -0.187587,0.0765 -0.04918,0.05 -0.0765,0.11746 -0.07596,0.18758 H 2.336404 c -0.146933,-5.3e-4 -0.266192,0.11868 -0.265618,0.26562 5.3e-4,0.14613 0.119492,0.26412 0.265618,0.26355 H 3.92442 c 9.3e-5,0.2353 0.284239,0.35345 0.451136,0.18758 l 0.263549,-0.26561 c 0.102597,-0.10321 0.102597,-0.2699 0,-0.37311 l -0.263549,-0.26561 c -0.04991,-0.0494 -0.117385,-0.0769 -0.187584,-0.0765 z m 10.58333,0 c -0.07,-2.7e-4 -0.13729,0.0272 -0.18707,0.0765 l -0.26562,0.26561 c -0.10259,0.10321 -0.10259,0.2699 0,0.37311 l 0.26562,0.26561 c 0.1669,0.16587 0.45104,0.0477 0.45114,-0.18758 h 1.58801 c 0.14532,-5.3e-4 0.26299,-0.11823 0.26355,-0.26355 5.3e-4,-0.14613 -0.11742,-0.26505 -0.26355,-0.26562 h -1.58801 c -0.002,-0.0173 -0.005,-0.0345 -0.01,-0.0512 -0.002,-0.009 -0.004,-0.0184 -0.006,-0.0274 -0.0116,-0.0408 -0.0329,-0.0782 -0.062,-0.10903 -0.0494,-0.0489 -0.11603,-0.0763 -0.18551,-0.0765 z m -8.191746,0.39687 c -0.03208,-10e-4 -0.06412,0.003 -0.09457,0.0134 -0.137811,0.0466 -0.21214,0.19573 -0.166399,0.33383 0,0 0.250113,0.79925 0.250113,1.24024 2.65e-4,0.14632 0.11929,0.26463 0.265618,0.26406 0.145521,-5.3e-4 0.263266,-0.11854 0.263549,-0.26406 0,-0.61736 -0.276985,-1.40612 -0.276985,-1.40612 -0.03467,-0.10492 -0.130899,-0.17725 -0.241329,-0.18138 z m 7.793836,1.5875 c 0.22445,0 0.39843,0.17245 0.39843,0.39688 0,0.22444 -0.17398,0.39635 -0.39843,0.39635 h -0.70487 -0.216 c -0.003,-0.086 -0.005,-0.17363 -0.005,-0.26355 0,-0.18507 0.006,-0.36175 0.0176,-0.52968 z M 3.129115,281.96505 H 3.6588 v 1.3224 H 3.129115 Z m 11.642702,0.1726 v 0.48731 c 0,0.22445 -0.17398,0.39687 -0.39843,0.39687 -0.74946,10e-6 -1.4986,0 -2.24792,0 v -0.79323 h 0.79271 c -5.3e-4,0.14694 0.11869,0.26619 0.26562,0.26562 0.14633,-2.7e-4 0.26464,-0.11929 0.26406,-0.26562 h 0.22066 0.70487 c 0.14218,0 0.27741,-0.0328 0.39843,-0.091 z m -10.58385,0.091 h 0.792715 c -5.29e-4,0.14694 0.118679,0.2662 0.265618,0.26562 0.146174,-5.3e-4 0.264639,-0.11945 0.264065,-0.26562 h 0.794784 v 0.79323 H 4.187967 Z m 2.646349,0 H 7.62755 c -5.29e-4,0.14694 0.118679,0.2662 0.265615,0.26562 0.146175,-5.3e-4 0.264123,-0.11945 0.263552,-0.26562 h 0.792715 v 0.79323 H 6.834316 Z m 2.644794,0 h 0.794787 c -5.3e-4,0.14617 0.11738,0.26512 0.26355,0.26562 0.14694,5.3e-4 0.2662,-0.11868 0.26562,-0.26562 h 0.79323 v 0.79323 H 9.47911 Z m 3.733627,1.3224 c 0.21118,0.69692 0.47695,1.10753 0.53898,1.19786 -0.17324,0.07 -0.44465,0.16588 -0.83147,0.26665 -0.74005,0.19279 -1.87568,0.38912 -3.441137,0.38912 -1.565445,0 -2.701603,-0.19633 -3.441645,-0.38912 -0.385593,-0.10045 -0.656595,-0.19621 -0.82655,-0.27262 0.05131,-0.0845 0.303583,-0.51199 0.515472,-1.19191 2.49556,2e-5 4.99066,2e-5 7.48635,2e-5 z m 1.80247,5.29968 c 0.007,0.0938 -0.0213,0.22187 -0.0791,0.33305 -0.0578,0.11119 -0.14435,0.20056 -0.20722,0.2341 -0.66755,0.3561 -2.21279,0.97288 -4.98419,1.01027 v -1.5844 c 5.3e-4,-0.14694 -0.11868,-0.2662 -0.265617,-0.26562 -0.14618,5.3e-4 -0.26464,0.11944 -0.26407,0.26562 v 1.5844 c -2.772096,-0.037 -4.316265,-0.65199 -4.98419,-1.00821 -0.06315,-0.0337 -0.150947,-0.12513 -0.208772,-0.23616 -0.05782,-0.11102 -0.08455,-0.23969 -0.07855,-0.32711 0.116877,-1.48928 0.695045,-2.91539 1.029394,-3.6344 0.197188,0.0813 0.506018,0.19451 0.931727,0.30541 0.783431,0.20409 1.96491,0.40617 3.574461,0.40617 1.609537,0 2.790497,-0.20208 3.573937,-0.40617 0.42585,-0.11094 0.74207,-0.21032 0.93328,-0.30593 0.33308,0.71695 0.90869,2.13764 1.02888,3.62898 z"
         sodipodi:nodetypes="cscsccscccccssccssssssccccssssscccscccsccccccccccscccsscccccccsscccccccscccccccsccccccscccccssscccsccsscssccsccccccccssccccccscccccccccccccccccccccccccccsssccccsscccccssccssscc" />
    </g>
  </g>
</svg>
