<?xml version="1.0" encoding="UTF-8" standalone="no"?>
<svg
   width="64pt"
   height="64pt"
   viewBox="0 0 22.577778 22.577778"
   version="1.1"
   id="svg831"
   inkscape:version="1.1.2 (1:1.1+202202050950+0a00cf5339)"
   sodipodi:docname="23 - Chest.svg"
   inkscape:export-filename="/media/taufikramadhan/Data/Tr Design Studio/Project Design/TR Creative Design/Icon Design/Project Hiring/Icon Icons/018 - Gym And Fitness/5 - Send/4 - Filled Line/23 - Chest.png"
   inkscape:export-xdpi="576"
   inkscape:export-ydpi="576"
   xmlns:inkscape="http://www.inkscape.org/namespaces/inkscape"
   xmlns:sodipodi="http://sodipodi.sourceforge.net/DTD/sodipodi-0.dtd"
   xmlns="http://www.w3.org/2000/svg"
   xmlns:svg="http://www.w3.org/2000/svg"
   xmlns:rdf="http://www.w3.org/1999/02/22-rdf-syntax-ns#"
   xmlns:cc="http://creativecommons.org/ns#"
   xmlns:dc="http://purl.org/dc/elements/1.1/">
  <defs
     id="defs825">
    <pattern
       id="EMFhbasepattern"
       patternUnits="userSpaceOnUse"
       width="6"
       height="6"
       x="0"
       y="0" />
    <pattern
       id="EMFhbasepattern-9"
       patternUnits="userSpaceOnUse"
       width="6"
       height="6"
       x="0"
       y="0" />
    <pattern
       id="EMFhbasepattern-0"
       patternUnits="userSpaceOnUse"
       width="6"
       height="6"
       x="0"
       y="0" />
    <pattern
       id="EMFhbasepattern-7"
       patternUnits="userSpaceOnUse"
       width="6"
       height="6"
       x="0"
       y="0" />
    <pattern
       id="EMFhbasepattern-2"
       patternUnits="userSpaceOnUse"
       width="6"
       height="6"
       x="0"
       y="0" />
    <pattern
       id="EMFhbasepattern-98"
       patternUnits="userSpaceOnUse"
       width="6"
       height="6"
       x="0"
       y="0" />
    <pattern
       id="EMFhbasepattern-6"
       patternUnits="userSpaceOnUse"
       width="6"
       height="6"
       x="0"
       y="0" />
    <pattern
       id="EMFhbasepattern-01"
       patternUnits="userSpaceOnUse"
       width="6"
       height="6"
       x="0"
       y="0" />
    <pattern
       id="EMFhbasepattern-07"
       patternUnits="userSpaceOnUse"
       width="6"
       height="6"
       x="0"
       y="0" />
    <pattern
       id="EMFhbasepattern-8"
       patternUnits="userSpaceOnUse"
       width="6"
       height="6"
       x="0"
       y="0" />
    <pattern
       id="EMFhbasepattern-4"
       patternUnits="userSpaceOnUse"
       width="6"
       height="6"
       x="0"
       y="0" />
    <pattern
       id="EMFhbasepattern-40"
       patternUnits="userSpaceOnUse"
       width="6"
       height="6"
       x="0"
       y="0" />
    <pattern
       id="EMFhbasepattern-08"
       patternUnits="userSpaceOnUse"
       width="6"
       height="6"
       x="0"
       y="0" />
    <pattern
       id="EMFhbasepattern-04"
       patternUnits="userSpaceOnUse"
       width="6"
       height="6"
       x="0"
       y="0" />
    <pattern
       id="EMFhbasepattern-014"
       patternUnits="userSpaceOnUse"
       width="6"
       height="6"
       x="0"
       y="0" />
    <pattern
       id="EMFhbasepattern-27"
       patternUnits="userSpaceOnUse"
       width="6"
       height="6"
       x="0"
       y="0" />
    <pattern
       id="EMFhbasepattern-09"
       patternUnits="userSpaceOnUse"
       width="6"
       height="6"
       x="0"
       y="0" />
    <pattern
       id="EMFhbasepattern-5"
       patternUnits="userSpaceOnUse"
       width="6"
       height="6"
       x="0"
       y="0" />
    <pattern
       id="EMFhbasepattern-018"
       patternUnits="userSpaceOnUse"
       width="6"
       height="6"
       x="0"
       y="0" />
  </defs>
  <sodipodi:namedview
     inkscape:lockguides="true"
     id="base"
     pagecolor="#ffffff"
     bordercolor="#666666"
     borderopacity="1.0"
     inkscape:pageopacity="0.0"
     inkscape:pageshadow="2"
     inkscape:zoom="4.4249417"
     inkscape:cx="37.853606"
     inkscape:cy="31.412843"
     inkscape:document-units="pt"
     inkscape:current-layer="layer1"
     showgrid="false"
     units="pt"
     inkscape:window-width="1366"
     inkscape:window-height="705"
     inkscape:window-x="0"
     inkscape:window-y="31"
     inkscape:window-maximized="1"
     inkscape:pagecheckerboard="true"
     inkscape:showpageshadow="false"
     inkscape:object-paths="true"
     inkscape:snap-intersection-paths="true"
     inkscape:snap-smooth-nodes="true"
     inkscape:snap-midpoints="true"
     showguides="false"
     inkscape:snap-bbox="true"
     inkscape:bbox-nodes="true"
     inkscape:snap-nodes="false"
     inkscape:snap-global="true"
     inkscape:document-rotation="0">
    <inkscape:grid
       type="xygrid"
       id="grid1378" />
    <sodipodi:guide
       position="0.97013831,21.607643"
       orientation="78.000048,0"
       id="guide1380"
       inkscape:locked="true" />
    <sodipodi:guide
       position="0.97013831,0.97013129"
       orientation="0,78.000005"
       id="guide1382"
       inkscape:locked="true" />
    <sodipodi:guide
       position="21.607639,0.97013129"
       orientation="-78.000048,0"
       id="guide1384"
       inkscape:locked="true" />
    <sodipodi:guide
       position="21.607639,21.607643"
       orientation="0,-78.000005"
       id="guide1386"
       inkscape:locked="true" />
  </sodipodi:namedview>
  <metadata
     id="metadata828">
    <rdf:RDF>
      <cc:Work
         rdf:about="">
        <dc:format>image/svg+xml</dc:format>
        <dc:type
           rdf:resource="http://purl.org/dc/dcmitype/StillImage" />
      </cc:Work>
    </rdf:RDF>
  </metadata>
  <g
     inkscape:label="Icon"
     inkscape:groupmode="layer"
     id="layer1"
     transform="translate(0,-274.42223)">
    <g
       id="g36148"
       style="display:inline;stroke-width:0.794881"
       transform="matrix(1.2580507,0,0,1.2580507,-76.109995,-154.02681)">
      <g
         id="g456119"
         style="display:inline;stroke-width:0.794881">
        <path
           style="color:#000000;fill:#ffccbc;stroke-width:0.794881;stroke-linecap:round;stroke-linejoin:round;stroke-miterlimit:10;-inkscape-stroke:none"
           d="m 62.14645,347.26572 c -0.23664,0.1065 -0.521871,0.32761 -0.714843,0.72461 -0.139024,0.28602 -0.16211,0.63965 -0.16211,0.89063 5.12e-4,0.0118 0.0018,0.0236 0.0039,0.0352 l 0.34961,2.58789 c 0.02744,0.20163 0.262713,0.29812 0.423828,0.17382 0.534883,-0.40682 0.63879,-0.91954 0.6875,-1.09765 0.169349,-0.004 0.792947,-0.0166 1.518075,-0.41652 0.121325,0.73964 0.492421,1.7443 1.261423,2.38125 0.04013,1.11662 0.201666,2.49452 0.390424,3.54894 0.08961,0.50055 0.544978,0.85352 1.042969,0.85352 h 5.048828 c 0.498304,0 0.955274,-0.35442 1.044922,-0.85547 0.187856,-1.04995 0.34439,-2.43235 0.385592,-3.55422 0.772108,-0.64391 1.145885,-1.63368 1.267097,-2.37299 0.724732,0.39859 1.348102,0.41344 1.517232,0.41744 0.04903,0.17908 0.154214,0.69137 0.689454,1.09766 0.161552,0.12219 0.394883,0.025 0.421875,-0.17578 l 0.349609,-2.58789 c 0.0014,-0.0117 0.0021,-0.0234 0.002,-0.0352 0,-0.251 -0.02095,-0.60638 -0.160156,-0.89258 -0.193001,-0.39681 -0.480218,-0.61622 -0.716797,-0.72266 -0.125508,-0.0565 -0.108677,-0.0548 -0.191737,-0.0678 -0.06658,-0.71106 -0.4478,-1.28903 -1.166679,-1.82582 -0.818711,-0.55606 -1.712319,-0.58862 -1.888949,-0.59056 -0.08318,-0.11998 -0.18553,-0.2333 -0.317123,-0.33627 -0.445097,-0.38561 -0.982764,-0.59368 -1.388199,-0.68641 -0.208582,-0.30763 -0.238499,-0.57319 -0.252426,-0.83312 -0.01084,-0.20231 -0.07953,-0.39636 -0.212891,-0.54687 -0.133364,-0.15052 -0.338186,-0.24805 -0.560547,-0.24805 H 68.125 c -0.222049,0 -0.425045,0.098 -0.558594,0.24805 -0.133548,0.15005 -0.202269,0.34286 -0.21289,0.54492 -0.01356,0.25797 -0.04867,0.53069 -0.252699,0.83559 -0.413968,0.0881 -0.930715,0.28657 -1.391833,0.68785 -0.142846,0.11218 -0.228265,0.20191 -0.314523,0.33431 -0.15201,10e-4 -1.055949,0.0257 -1.887642,0.59056 -0.718741,0.53669 -1.101814,1.11494 -1.1685,1.82581 -0.06961,0.0193 -0.134871,0.0412 -0.191869,0.0678 z"
           id="path217889"
           sodipodi:nodetypes="cscccccccsssscccccccsccccccsssssscccccc" />
      </g>
      <path
         style="fill:#ffa185;fill-opacity:1;stroke:none;stroke-width:2.31344;stroke-linecap:round;stroke-linejoin:round;stroke-miterlimit:10;stop-color:#000000"
         d="m 77.366244,348.65369 -0.443115,-1.00381 -0.426538,-0.21002 -0.139473,0.24747 c 0,0 0.58865,0.51255 0.787302,1.17146 z"
         id="path29280"
         sodipodi:nodetypes="cccccc" />
      <path
         style="fill:#ffa185;fill-opacity:1;stroke:none;stroke-width:2.31344;stroke-linecap:round;stroke-linejoin:round;stroke-miterlimit:10;stop-color:#000000"
         d="m 73.020745,349.24838 c 0,0 0.455773,0.55636 1.125978,0.92114 0.158139,0.0861 0.328217,0.16147 0.507063,0.21638 l 0.03988,-0.22117 -0.101828,-0.46863 -0.979774,-0.99224 -0.695345,0.31707 z"
         id="path10581"
         sodipodi:nodetypes="cscccccc" />
      <path
         style="fill:#ffa185;fill-opacity:1;stroke:none;stroke-width:2.31344;stroke-linecap:round;stroke-linejoin:round;stroke-miterlimit:10;stop-color:#000000"
         d="m 65.921062,349.24838 c 0,0 -0.455773,0.55636 -1.125978,0.92114 -0.158139,0.0861 -0.328217,0.16147 -0.507063,0.21638 l -0.03988,-0.22117 0.101828,-0.46863 0.979774,-0.99224 0.695345,0.31707 z"
         id="path21592"
         sodipodi:nodetypes="cscccccc" />
      <path
         style="fill:#ffa185;fill-opacity:1;stroke:none;stroke-width:2.31344;stroke-linecap:round;stroke-linejoin:round;stroke-miterlimit:10;stop-color:#000000"
         d="m 62.791119,347.37415 c 0,0 0.02328,-0.0418 0.06932,-0.11285 0.224634,-0.34665 0.990922,-1.38941 2.23632,-1.66778 0.02146,-0.005 0.04307,-0.009 0.06481,-0.0137 l 0.123337,-0.4603 c 0,0 -1.148445,0.22822 -1.748698,0.74194 0,0 -0.678385,0.49563 -0.745094,1.51269 z"
         id="path26849"
         sodipodi:nodetypes="cssccccc" />
      <path
         style="fill:#ffa185;fill-opacity:1;stroke:none;stroke-width:2.31344;stroke-linecap:round;stroke-linejoin:round;stroke-miterlimit:10;stop-color:#000000"
         d="m 76.154288,347.37415 c 0,0 -0.02328,-0.0418 -0.06932,-0.11285 -0.224634,-0.34665 -0.990922,-1.38941 -2.23632,-1.66778 -0.02146,-0.005 -0.04307,-0.009 -0.06481,-0.0137 l -0.123337,-0.4603 c 0,0 1.148445,0.22822 1.748698,0.74194 0,0 0.678385,0.49563 0.745094,1.51269 z"
         id="path28130"
         sodipodi:nodetypes="cssccccc" />
      <path
         style="fill:#ffa185;fill-opacity:1;stroke:none;stroke-width:2.31344;stroke-linecap:round;stroke-linejoin:round;stroke-miterlimit:10;stop-color:#000000"
         d="m 61.576206,348.65369 0.443115,-1.00381 0.426538,-0.21002 0.139473,0.24747 c 0,0 -0.587865,0.53482 -0.786517,1.19373 z"
         id="path28430"
         sodipodi:nodetypes="cccccc" />
      <path
         id="path105060"
         style="color:#000000;fill:#000000;stroke-width:3.00427;stroke-linecap:round;stroke-linejoin:round;stroke-miterlimit:10;-inkscape-stroke:none"
         d="m 257.48047,234.57422 c -0.83924,0 -1.60658,0.37038 -2.11133,0.9375 -0.50475,0.56712 -0.76454,1.2949 -0.80469,2.05859 -0.0486,0.92418 -0.27312,2.05996 -0.95507,3.15821 -1.57964,0.32242 -3.48364,1.05459 -5.25391,2.59179 -0.49655,0.3891 -0.88518,0.81893 -1.19531,1.27149 -1.25326,0.0663 -4.45654,0.41376 -7.11524,2.2207 -0.0125,0.008 -0.025,0.0159 -0.0371,0.0234 -2.70738,2.02412 -4.15313,4.18868 -4.39843,6.88867 -0.22302,0.0591 -0.46936,0.14099 -0.72461,0.25586 -0.89439,0.40252 -1.97379,1.23781 -2.70313,2.73828 -0.52544,1.08102 -0.61133,2.4186 -0.61133,3.36719 0.002,0.55249 0.45143,0.99828 1.00391,0.99609 0.54959,-0.002 0.9942,-0.44651 0.99609,-0.99609 0,-0.72129 0.20378,-2.07948 0.40625,-2.4961 0.52471,-1.0795 1.18766,-1.54461 1.72656,-1.78711 0.44816,-0.20178 0.74978,-0.22605 0.83985,-0.22851 0.0106,2.9e-4 0.0206,0.002 0.0312,0.002 0.55249,-0.002 0.99828,-0.45141 0.99609,-1.0039 0,-2.5324 0.91503,-4.08649 3.60352,-6.10547 1.63563,-1.10836 3.68886,-1.5662 5.05273,-1.75586 -0.0742,0.28693 -0.13297,0.57427 -0.18164,0.85547 -0.0916,0.54175 0.27141,1.0548 0.8125,1.15039 0.54176,0.0915 1.05677,-0.27146 1.15235,-0.8125 0.22442,-1.29657 0.49929,-2.18263 1.60937,-3.04492 0.98155,-0.85798 1.99345,-1.4095 2.94531,-1.76368 0.0397,0.0658 0.0869,0.1267 0.14063,0.18164 0.39073,0.39172 1.02528,0.39172 1.41601,0 1.83243,-1.83239 2.35244,-4.02201 2.43555,-5.60351 0.0196,-0.37077 0.14683,-0.65884 0.30274,-0.83399 0.1559,-0.17499 0.31641,-0.26562 0.62109,-0.26562 0.55534,0.002 1.00609,-0.44857 1.00391,-1.00391 -0.002,-0.55229 -0.45162,-0.99825 -1.00391,-0.99609 z m 10.17969,0 c -0.54924,0.002 -0.99396,0.44685 -0.9961,0.99609 -0.002,0.55229 0.44381,1.00176 0.9961,1.00391 0.30349,0 0.46266,0.0891 0.61914,0.26562 0.15647,0.17651 0.29047,0.47292 0.31054,0.84766 0.0847,1.58052 0.60692,3.76123 2.43555,5.58984 0.39095,0.39303 1.02702,0.39303 1.41797,0 0.0535,-0.0537 0.10063,-0.11335 0.14062,-0.17773 0.94812,0.35249 1.95639,0.90415 2.9375,1.76172 1.11008,0.8623 1.38497,1.74835 1.60938,3.04492 0.0955,0.54448 0.61385,0.90869 1.1582,0.8125 0.54108,-0.0956 0.90417,-0.61059 0.8125,-1.15234 -0.0489,-0.28227 -0.10668,-0.56939 -0.18164,-0.85743 1.36387,0.18968 3.41901,0.64953 5.05469,1.75782 2.68849,2.01898 3.60156,3.57112 3.60156,6.10351 -0.002,0.55249 0.44361,1.00202 0.9961,1.00391 0,0 0.32452,-0.0153 0.86328,0.22851 0.53876,0.24227 1.20379,0.70829 1.72851,1.78711 0.20296,0.41726 0.40625,1.77489 0.40625,2.4961 0.002,0.55249 0.45143,0.99828 1.00391,0.99609 0.54959,-0.002 0.9942,-0.44651 0.99609,-0.99609 0,-0.94866 -0.0793,-2.2933 -0.60547,-3.375 -0.72945,-1.49976 -1.81482,-2.32818 -2.70898,-2.73047 -0.25549,-0.11494 -0.50225,-0.19679 -0.72461,-0.25586 -0.24429,-2.70013 -1.68593,-4.86595 -4.41016,-6.90039 -2.67592,-1.81755 -5.88742,-2.16617 -7.13867,-2.23242 -0.31261,-0.4546 -0.70482,-0.88695 -1.20508,-1.27735 -1.76613,-1.52848 -3.66598,-2.26684 -5.24023,-2.58789 -0.6791,-1.09457 -0.90371,-2.22616 -0.95313,-3.14844 -0.041,-0.76459 -0.30064,-1.49754 -0.80468,-2.0664 -0.50405,-0.5689 -1.27872,-0.9375 -2.11914,-0.9375 z m 3.85156,11.99609 c -0.0871,0.006 -0.17316,0.0228 -0.25586,0.0508 0,0 -2.90778,0.95118 -5.68555,0.95118 -0.54999,0.002 -0.99502,0.44804 -0.99609,0.99804 -0.002,0.55229 0.4438,1.00175 0.99609,1.00391 3.22223,0 6.32031,-1.04883 6.32031,-1.04883 0.5273,-0.17362 0.81225,-0.74352 0.63477,-1.26953 -0.14231,-0.43272 -0.55908,-0.71458 -1.01367,-0.68555 z m -18.01367,0.002 c -0.403,0.0301 -0.74826,0.29986 -0.875,0.68359 -0.17748,0.52601 0.10747,1.0959 0.63476,1.26953 0,0 3.09028,1.04883 6.3125,1.04883 0.55534,0.002 1.00609,-0.44857 1.00391,-1.00391 -0.001,-0.55305 -0.45086,-1.0002 -1.00391,-0.99804 -2.77777,0 -5.68554,-0.95118 -5.68554,-0.95118 -0.12446,-0.0415 -0.25586,-0.0581 -0.38672,-0.0488 z m 9.02343,5.00195 c -0.52865,0.0247 -0.94932,0.46087 -0.95117,0.99609 v 6.27539 c -3.49215,1.71267 -5.44381,1.71168 -7.99414,1.72657 -5.22221,0 -9.13281,-6.4961 -9.13281,-6.4961 -0.13242,-0.22891 -0.35012,-0.39605 -0.60547,-0.46484 -0.25592,-0.0702 -0.52924,-0.0358 -0.75977,0.0957 -0.4783,0.27221 -0.64676,0.87973 -0.37695,1.35938 0,0 1.05838,1.9328 2.98438,3.83789 -0.93615,2.56453 -2.82035,3.91348 -4.69727,4.70117 -2.01948,0.84752 -3.99034,0.95938 -4.35351,0.96875 v 0.002 c -0.48297,-0.0312 -0.91895,0.28799 -1.03516,0.75781 0,0 -0.7111,2.52383 -2.30273,3.73438 -0.44051,0.33415 -0.52626,0.96236 -0.19141,1.40234 0.33593,0.43861 0.96389,0.5217 1.40234,0.18555 1.64423,-1.25055 2.47063,-3.10875 2.82031,-4.12109 0.93544,-0.0803 2.62528,-0.32421 4.43555,-1.08399 0.35652,-0.14962 0.71909,-0.3217 1.08008,-0.51758 0.46435,2.86971 1.66305,6.74969 4.76758,9 0.007,0.005 0.0128,0.009 0.0195,0.0137 0.18109,4.17225 0.7742,9.58409 1.45703,13.39843 0.33868,1.89185 2.05924,3.22657 3.94141,3.22657 0.55229,0.002 1.00175,-0.44381 1.0039,-0.9961 0.002,-0.55533 -0.44857,-1.00607 -1.0039,-1.0039 -0.83368,0 -1.83196,-0.80501 -1.97071,-1.58008 -0.20555,-1.14824 -0.40456,-2.46596 -0.58593,-3.85547 0.0913,0.0912 0.17434,0.17434 0.26757,0.26758 1.17738,1.1774 2.73299,2.52033 4.51758,3.11523 0.52172,0.17348 1.08693,-0.10644 1.26367,-0.62695 0.17757,-0.52607 -0.10737,-1.09594 -0.63476,-1.26953 -2.42249,-1.10311 -3.91052,-2.84002 -5.7832,-4.64844 -0.31981,-3.07708 -0.5293,-6.1763 -0.5293,-8.40234 -10e-4,-0.55305 -0.45086,-1.00021 -1.00391,-0.99805 -0.42451,0.005 -0.79959,0.27751 -0.93554,0.67969 -1.84957,-2.12897 -2.6718,-5.381 -2.94336,-7.57618 1.01804,-0.85991 1.93356,-1.97109 2.58203,-3.39257 1.69416,1.27812 3.81804,2.28711 6.30273,2.28711 2.56231,-0.0151 5.21092,-0.26734 8.99805,-2.11133 3.78685,1.84384 6.42778,2.09693 8.99023,2.11133 0.003,10e-6 0.005,10e-6 0.008,0 2.48345,0 4.60438,-1.00794 6.29687,-2.28516 0.65001,1.42279 1.56679,2.53406 2.58789,3.39453 -0.26615,2.19431 -1.08182,5.4388 -2.94336,7.57227 -0.1369,-0.40488 -0.51597,-0.678 -0.94336,-0.67969 -0.55,0.002 -0.99502,0.44805 -0.99609,0.99805 0,2.22504 -0.20947,5.32321 -0.5293,8.40039 -1.71672,1.63846 -3.36935,3.82748 -5.69531,4.65039 -0.52444,0.1765 -0.80515,0.74561 -0.62695,1.26953 0.17673,0.52059 0.74,0.80036 1.26172,0.62695 1.78459,-0.5949 3.34215,-1.93783 4.51953,-3.11523 0.0531,-0.0531 0.10408,-0.10568 0.15625,-0.15821 -0.1775,1.34971 -0.37021,2.62766 -0.57032,3.7461 -0.13939,0.77915 -1.14603,1.58008 -1.97851,1.58008 -0.55229,0.002 -0.99826,0.45161 -0.9961,1.0039 0.002,0.54924 0.44686,0.99396 0.9961,0.9961 1.88335,0 3.61039,-1.33869 3.94922,-3.23243 0.68468,-3.8268 1.27795,-9.25821 1.45703,-13.43359 l 0.0195,0.0273 c 3.1138,-2.25705 4.30964,-6.12798 4.76953,-8.99609 0.51325,0.27873 1.02797,0.51072 1.52734,0.69922 2.18244,0.82382 3.66256,0.80589 4.13282,0.81836 0.26014,0.85757 0.78709,2.77235 2.67968,4.20898 0.43891,0.32996 1.06299,0.2428 1.39649,-0.19336 0.3349,-0.44016 0.24748,-1.06834 -0.19336,-1.40234 -1.43887,-1.09221 -2.19354,-3.3248 -2.31055,-3.70898 -0.12041,-0.46175 -0.51163,-0.77782 -0.96679,-0.78711 0,0 -1.89519,-0.008 -4.0293,-0.8125 -1.99263,-0.7522 -4.08132,-2.11589 -5.08203,-4.85743 1.92289,-1.90446 2.97851,-3.83593 2.97851,-3.83593 0.27111,-0.47761 0.10631,-1.0845 -0.36914,-1.35938 -0.47937,-0.27642 -1.09209,-0.11098 -1.36719,0.36914 0,0 -3.90439,6.4902 -9.12304,6.4961 -2.55512,-0.0144 -4.50985,-0.0136 -8.00977,-1.73047 v -6.27149 c -0.002,-0.54958 -0.4465,-0.9942 -0.99609,-0.99609 -0.0173,-7e-5 -0.0357,-8e-4 -0.0527,0 z m -8.95312,5.00195 c -0.54924,0.002 -0.99395,0.44686 -0.99609,0.9961 0.001,0.55 0.4461,0.99589 0.99609,0.99804 0.55305,0.002 1.00283,-0.44499 1.00391,-0.99804 -0.002,-0.55229 -0.45162,-0.99826 -1.00391,-0.9961 z m 18.00391,0 c -0.54924,0.002 -0.99396,0.44686 -0.9961,0.9961 0.001,0.55 0.4461,0.9959 0.9961,0.99804 0.55304,0.002 1.00282,-0.44499 1.0039,-0.99804 -0.002,-0.55229 -0.45161,-0.99826 -1.0039,-0.9961 z m -9.05079,6.99414 c -0.53135,0.025 -0.9533,0.4659 -0.95117,1.00391 v 6 h -2 c -0.98063,0 -1.65184,-0.40794 -2.17187,-1.07813 -0.52004,-0.67018 -0.82617,-1.63179 -0.82617,-2.56836 -0.002,-0.54924 -0.44686,-0.99395 -0.9961,-0.99609 -0.55228,-0.002 -1.00174,0.44381 -1.0039,0.99609 0,1.35258 0.41094,2.71614 1.24804,3.79493 0.83711,1.07882 2.15923,1.85351 3.75,1.85351 h 2 v 3.46094 h -2 c -0.98063,0 -1.65183,-0.40798 -2.17187,-1.07813 -0.16313,-0.20781 -0.40186,-0.34263 -0.66406,-0.375 -0.26277,-0.034 -0.52831,0.0376 -0.73829,0.19922 -0.43546,0.33889 -0.51413,0.96646 -0.17578,1.40235 0.83711,1.07879 2.15922,1.85156 3.75,1.85156 h 2 v 3.53711 h -0.99609 c -0.49015,0 -0.89229,-0.11086 -1.24805,-0.29492 -0.23753,-0.12181 -0.5139,-0.14359 -0.76758,-0.0605 -0.25142,0.0794 -0.4613,0.2549 -0.58398,0.48828 -0.25523,0.49074 -0.0636,1.09546 0.42773,1.34961 0.63532,0.32844 1.37632,0.51758 2.17188,0.51758 h 2 2 c 0.79532,0 1.53423,-0.18868 2.16992,-0.51758 0.49131,-0.25414 0.68296,-0.85887 0.42774,-1.34961 -0.25415,-0.4913 -0.85887,-0.68296 -1.34961,-0.42773 -0.35539,0.18406 -0.75767,0.29492 -1.24805,0.29492 h -1.00391 v -3.53711 h 2 c 1.59079,0 2.92071,-0.77273 3.75781,-1.85156 0.33791,-0.4364 0.25836,-1.06405 -0.17773,-1.40235 -0.43589,-0.33834 -1.06345,-0.25968 -1.40234,0.17578 -0.52004,0.67019 -1.19711,1.07813 -2.17774,1.07813 h -2 v -3.46094 h 2 c 1.59078,0 2.92071,-0.77469 3.75781,-1.85351 0.83711,-1.07879 1.24805,-2.44235 1.24805,-3.79493 -0.002,-0.55228 -0.45162,-0.99825 -1.0039,-0.99609 -0.54924,0.002 -0.99396,0.44685 -0.9961,0.99609 0,0.93657 -0.3081,1.89818 -0.82812,2.56836 -0.52004,0.67019 -1.1971,1.07813 -2.17774,1.07813 h -2 v -6 c 0.002,-0.55249 -0.4436,-1.00202 -0.99609,-1.00391 -0.0174,-7e-5 -0.0356,-8e-4 -0.0527,0 z"
         transform="matrix(0.26458334,0,0,0.26458334,0,280.06666)"
         sodipodi:nodetypes="sssccccccssccccccccccccccccccccssscscsscscccsccccccscccsscccccsscsccccccsssccccccsssccccccccscccccccscscscscscscccccccccccsccccccccccscscscscccsccccccccccccccsssscscsscscssccsscscssccsccccsccsccccscssccsccscccsccsscscssccsss" />
    </g>
  </g>
</svg>
