<svg width="29" height="50" viewBox="0 0 29 50" fill="none" xmlns="http://www.w3.org/2000/svg">
<path fill-rule="evenodd" clip-rule="evenodd" d="M21.3759 1.51858C21.3759 1.51858 19.5354 -0.266181 17.8064 0.180009C16.0216 0.6262 15.2408 3.47066 15.2408 4.47459C15.2408 5.47852 15.2408 5.47852 15.2408 5.47852C15.2408 5.47852 14.2369 5.98049 12.731 6.98442C11.2251 7.98834 6.37278 10.4982 5.70349 11.1675C5.03421 11.8367 1.91087 18.8642 1.91087 18.8642C1.91087 18.8642 1.07427 20.5375 0.851171 22.6569C0.628076 24.7763 1.68778 25.1109 1.68778 25.1109C1.68778 25.1109 3.19367 23.5492 3.24945 22.7684C3.30522 21.9876 2.9148 21.5972 3.52831 21.7087C4.14183 21.8202 4.75534 23.0473 4.92266 22.5453C5.08998 21.9876 3.69564 20.5932 3.91873 19.1989C4.1976 17.8045 7.71135 12.9522 8.04599 12.5618C8.38064 12.1714 10.8347 12.0041 10.8347 12.0041L10.5 20.649C10.5 20.649 9.9423 23.8839 10.3327 24.9436C10.7231 26.0033 12.229 27.2303 12.229 27.4534C12.229 27.6765 12.0059 31.9711 12.0059 31.9711L13.3445 32.0269C13.3445 32.0269 13.1214 35.2617 12.5637 36.5445C12.0059 37.8273 11.8944 39.1659 11.7828 41.6757C11.6713 44.2413 11.3924 45.1337 11.2809 45.3568C11.1693 45.5799 9.9423 47.3089 10.1096 48.1455C10.2212 48.9821 14.0138 49.7072 16.1332 49.7629C18.2526 49.8187 18.3084 49.7629 18.3084 49.2052C18.3084 48.6475 17.7506 48.2013 16.5236 47.532C15.3524 46.8627 13.958 45.4126 13.958 45.4126C13.958 45.4126 14.2369 41.7315 14.7946 39.9467C15.3524 38.162 15.4639 37.3254 15.4639 37.3254C15.4639 37.3254 17.3602 40.6718 18.4199 39.891C19.4796 39.0544 17.7506 37.66 17.918 35.8195C18.0853 33.9789 18.7546 32.975 18.7546 32.975C18.7546 32.975 20.6509 31.3018 23.2165 29.9075C25.7821 28.5689 28.1803 27.1188 28.1803 25.5013C28.1803 23.8839 27.5111 23.4935 25.7263 22.7684C23.8858 22.0433 20.8182 21.4856 19.3123 20.8163C17.8064 20.147 18.0295 19.9239 18.0295 19.9239L18.4199 17.0237C18.4199 17.0237 19.6469 19.0316 20.9297 17.191C22.1568 15.3505 23.328 13.733 23.7184 12.7849C24.0531 11.781 24.4993 11.3905 24.7781 10.9444C25.057 10.4424 25.7263 9.15959 25.9494 8.65763C26.1167 8.21144 25.4474 6.48245 25.057 6.42668C24.6666 6.3709 23.6627 8.54608 23.4396 8.9365C23.1607 9.32692 23.0491 9.32692 22.6587 8.7134C22.2683 8.09989 21.8221 7.82102 21.7664 8.43453C21.7106 9.04805 22.101 9.77311 22.3241 10.2751C22.5472 10.777 22.8261 11.3905 22.4356 12.0041C22.0452 12.6176 20.0931 14.6812 19.9258 14.5697C19.7585 14.4581 19.0334 12.4502 18.8661 11.6136C18.6988 10.7213 18.7546 10.2751 18.4757 9.71733C18.1968 9.15959 17.8622 8.76918 17.8622 8.49031C17.8622 8.21144 18.7546 7.6537 18.7546 7.6537C18.7546 7.6537 19.6469 8.37876 20.2047 7.93257C20.7624 7.48638 20.6509 6.31513 20.9297 5.98049C21.2086 5.64584 21.7664 5.64584 21.8221 5.36697C21.9337 5.08811 21.4875 3.86108 21.5433 3.58221C21.599 3.30334 21.4317 1.57435 21.4317 1.57435L21.3759 1.51858ZM18.2526 28.2342L19.9258 28.8478L18.3084 30.1305V28.2342H18.2526Z" fill="#FED15A"/>
<path fill-rule="evenodd" clip-rule="evenodd" d="M21.3763 1.51883C21.3763 1.51883 19.5358 -0.265937 17.8068 0.180253C16.022 0.626444 15.2412 3.47091 15.2412 4.47484V4.75371C15.7432 5.08835 16.3009 5.31144 16.7471 4.9768C17.6395 4.36329 16.9144 2.69008 17.5279 2.52275C18.1972 2.35543 18.6992 3.63823 18.6434 4.19597C18.5876 4.69793 19.1454 4.75371 19.1454 4.75371C19.1454 4.75371 19.2569 2.74585 19.7589 2.18811C20.2609 1.5746 20.7628 1.96502 21.2648 2.07656L21.4321 2.13234C21.4321 1.79769 21.3763 1.51883 21.3763 1.51883Z" fill="#405A6C"/>
<path fill-rule="evenodd" clip-rule="evenodd" d="M11.281 45.5241C11.0579 45.8588 9.99821 47.4762 10.1098 48.2571C10.2213 49.0937 14.0139 49.8187 16.1333 49.8745C18.2527 49.9303 18.3085 49.8745 18.3085 49.3168C18.3085 48.759 17.7508 48.3128 16.5238 47.6435C15.464 47.03 14.237 45.803 14.0139 45.5799C13.5677 45.9703 13.01 46.305 12.6754 46.2492C12.2849 46.1934 11.6714 45.8588 11.2252 45.5241H11.281ZM15.5198 37.4927C15.8545 38.0505 17.4719 40.6718 18.4201 39.9468C19.4798 39.1102 17.7508 37.7158 17.9181 35.8753C17.9739 35.0387 18.197 34.3694 18.3643 33.8674C17.9181 33.7559 17.5277 33.5885 17.3046 33.3097C16.5795 32.4173 16.3564 31.0229 16.3564 31.0229C16.3564 31.0229 16.0776 31.0229 15.4083 31.1903C14.739 31.3576 13.4004 32.1384 13.4004 32.1384C13.4004 32.1384 13.7351 33.1981 14.0697 33.7001C14.4043 34.2021 15.5198 37.3812 15.5198 37.4927Z" fill="#405A6C"/>
<path fill-rule="evenodd" clip-rule="evenodd" d="M10.5561 19.1433L10.5004 20.705C10.5004 20.705 9.94263 23.9399 10.333 24.9996C10.7235 26.0593 12.2294 27.2863 12.2294 27.5094C12.2294 27.7325 12.0063 32.0271 12.0063 32.0271L13.3448 32.0828V32.1386L13.6237 32.0271C13.6237 32.0271 14.5161 31.4136 15.2411 31.302C15.9662 31.1905 16.747 31.0789 16.747 31.0789L18.3645 30.1308L18.476 29.9077L18.2529 30.075V28.1787L19.8704 28.7922H19.9261L21.934 26.7843C21.934 26.7843 23.5514 26.0035 23.9976 25.9477C24.388 25.8919 24.9458 25.7246 24.9458 25.7246L26.3401 23.1033C26.117 22.9917 25.8939 22.9359 25.6708 22.8244C23.8303 22.0993 20.7627 21.5416 19.2569 20.8723C17.751 20.203 17.9741 19.9799 17.9741 19.9799L18.0298 19.5337L17.3048 19.3106C17.3048 19.3106 12.9544 19.3106 12.4524 19.3106C12.1736 19.3106 11.2254 19.1433 10.5004 19.1433H10.5561Z" fill="#405A6C"/>
<path fill-rule="evenodd" clip-rule="evenodd" d="M11.6719 26.8402C12.0065 27.1748 12.2296 27.4537 12.2296 27.5095C12.2296 27.5653 12.1738 28.3461 12.1738 29.1827L17.0262 27.9557C17.0262 27.9557 13.1778 27.7326 12.62 27.4537C12.4527 27.3422 12.0623 27.1191 11.6719 26.7844V26.8402Z" fill="#334B5F"/>
<path fill-rule="evenodd" clip-rule="evenodd" d="M15.0739 5.53442C14.795 5.70175 13.9027 6.20371 12.6756 6.98454C12.0621 7.37496 10.9466 8.04425 9.77539 8.65776C10.4447 8.9924 11.4486 9.60591 11.7275 10.2752C12.1737 11.3349 11.8948 11.6695 11.8948 11.6695L10.8351 12.0042L10.5005 20.6491C11.114 20.426 12.5083 19.9241 13.4007 19.7567C14.3488 19.5894 17.0818 19.9241 18.0299 20.0356C17.9741 19.9798 18.0299 19.9241 18.0299 19.9241L18.4203 17.0238C18.4203 17.0238 18.4761 17.0796 18.4761 17.1354L18.9223 12.3388C18.8107 12.06 18.755 11.7811 18.6992 11.558C18.5319 10.6656 18.5877 10.2194 18.3088 9.66169C18.0299 9.10395 17.6953 8.71353 17.6953 8.43466C17.6953 8.37889 17.751 8.26734 17.8626 8.15579C17.4722 7.76538 16.3567 6.6499 15.799 6.14794C15.5201 5.92484 15.2412 5.70175 15.0181 5.53442H15.0739ZM18.4761 17.1912L19.2569 17.9162C18.8665 17.7489 18.5877 17.4142 18.4761 17.1912Z" fill="#87A0D1"/>
</svg>
